<svg xmlns="http://www.w3.org/2000/svg" xmlns:xlink="http://www.w3.org/1999/xlink" width="500" zoomAndPan="magnify" viewBox="0 0 375 374.999991" height="500" preserveAspectRatio="xMidYMid meet" version="1.0"><defs><g/><clipPath id="b7cdc794b3"><path d="M 312 161 L 368.828125 161 L 368.828125 211.988281 L 312 211.988281 Z M 312 161 " clip-rule="nonzero"/></clipPath><clipPath id="82a82ecd72"><path d="M 351 196 L 358 196 L 358 211.988281 L 351 211.988281 Z M 351 196 " clip-rule="nonzero"/></clipPath><clipPath id="d84155d890"><path d="M 345 173 L 368.828125 173 L 368.828125 196 L 345 196 Z M 345 173 " clip-rule="nonzero"/></clipPath><clipPath id="18dea23201"><path d="M 324 155.738281 L 326 155.738281 L 326 161 L 324 161 Z M 324 155.738281 " clip-rule="nonzero"/></clipPath></defs><g clip-path="url(#b7cdc794b3)"><path fill="#aba9a0" d="M 368.300781 190.859375 C 367.988281 188.9375 366.4375 187.363281 364.414062 186.957031 C 365.164062 185.109375 364.78125 182.996094 363.441406 181.59375 C 361.960938 180.046875 359.585938 179.632812 357.601562 180.617188 C 357.636719 177.515625 355.652344 174.742188 352.742188 173.789062 C 350.386719 173.023438 347.808594 173.578125 345.957031 175.171875 L 345.953125 175.171875 C 345.460938 172.632812 343.425781 170.636719 341.074219 170.378906 C 339.714844 170.226562 338.335938 170.667969 337.21875 171.515625 C 335.828125 166.015625 330.859375 161.941406 324.941406 161.941406 C 317.945312 161.941406 312.277344 167.628906 312.277344 174.640625 C 312.277344 180.394531 316.09375 185.253906 321.320312 186.8125 C 319.75 188.769531 319.46875 191.519531 320.648438 193.785156 C 318.421875 192.558594 315.632812 192.957031 313.839844 194.757812 C 312.042969 196.558594 311.644531 199.347656 312.867188 201.582031 C 316.304688 201.582031 319.746094 201.582031 323.1875 201.582031 C 322.832031 202.878906 322.59375 204.191406 322.59375 205.351562 C 322.59375 206.335938 322.773438 207.207031 323.042969 207.96875 C 323.949219 210.507812 327.691406 210.507812 328.601562 207.96875 C 328.875 207.207031 329.046875 206.335938 329.046875 205.351562 C 329.046875 204.191406 328.808594 202.878906 328.457031 201.582031 C 331.367188 201.582031 334.277344 201.582031 337.1875 201.582031 C 337.179688 201.695312 337.179688 201.804688 337.179688 201.910156 C 337.179688 202.894531 337.359375 203.765625 337.628906 204.527344 C 338.535156 207.066406 342.277344 207.066406 343.191406 204.527344 C 343.460938 203.765625 343.636719 202.894531 343.636719 201.910156 C 343.636719 201.804688 343.636719 201.695312 343.625 201.582031 L 343.628906 201.582031 C 346.480469 201.582031 349.328125 201.582031 352.179688 201.582031 C 351.605469 203.328125 351.148438 205.21875 351.148438 206.8125 C 351.148438 207.800781 351.328125 208.671875 351.597656 209.433594 C 352.503906 211.972656 356.246094 211.972656 357.15625 209.433594 C 357.429688 208.671875 357.601562 207.800781 357.601562 206.8125 C 357.601562 205.21875 357.144531 203.328125 356.570312 201.582031 L 356.578125 201.582031 C 359.671875 201.582031 362.773438 201.582031 365.875 201.582031 C 367 199.886719 366.980469 197.714844 365.875 196.21875 C 365.792969 196.113281 365.714844 196.011719 365.625 195.917969 C 367.539062 194.945312 368.628906 192.871094 368.300781 190.859375 Z M 368.300781 190.859375 " fill-opacity="1" fill-rule="nonzero"/></g><path fill="#e7f2f1" d="M 325.492188 205.484375 C 326.039062 205.484375 326.480469 205.929688 326.480469 206.476562 C 326.480469 207.027344 326.039062 207.472656 325.492188 207.472656 C 324.945312 207.472656 324.503906 207.027344 324.503906 206.476562 C 324.503906 205.929688 324.945312 205.484375 325.492188 205.484375 Z M 325.492188 205.484375 " fill-opacity="1" fill-rule="nonzero"/><path fill="#e7f2f1" d="M 340.082031 202.042969 C 340.628906 202.042969 341.074219 202.488281 341.074219 203.035156 C 341.074219 203.585938 340.628906 204.03125 340.082031 204.03125 C 339.53125 204.03125 339.089844 203.585938 339.089844 203.035156 C 339.089844 202.488281 339.53125 202.042969 340.082031 202.042969 Z M 340.082031 202.042969 " fill-opacity="1" fill-rule="nonzero"/><path fill="#e7f2f1" d="M 354.050781 206.949219 C 354.597656 206.949219 355.042969 207.394531 355.042969 207.941406 C 355.042969 208.492188 354.597656 208.9375 354.050781 208.9375 C 353.5 208.9375 353.058594 208.492188 353.058594 207.941406 C 353.058594 207.394531 353.5 206.949219 354.050781 206.949219 Z M 354.050781 206.949219 " fill-opacity="1" fill-rule="nonzero"/><g clip-path="url(#82a82ecd72)"><path fill="#c3ddda" d="M 357.601562 206.8125 C 357.601562 207.800781 357.429688 208.671875 357.15625 209.433594 C 356.246094 211.972656 352.503906 211.972656 351.597656 209.433594 C 351.328125 208.671875 351.148438 207.800781 351.148438 206.8125 C 351.148438 205.21875 351.605469 203.328125 352.179688 201.582031 C 353.125 198.707031 354.378906 196.25 354.378906 196.25 C 354.378906 196.25 355.628906 198.707031 356.570312 201.582031 C 357.144531 203.328125 357.601562 205.21875 357.601562 206.8125 Z M 355.042969 207.941406 C 355.042969 207.394531 354.597656 206.949219 354.050781 206.949219 C 353.5 206.949219 353.058594 207.394531 353.058594 207.941406 C 353.058594 208.492188 353.5 208.9375 354.050781 208.9375 C 354.597656 208.9375 355.042969 208.492188 355.042969 207.941406 Z M 355.042969 207.941406 " fill-opacity="1" fill-rule="nonzero"/></g><path fill="#c3ddda" d="M 343.625 201.582031 C 343.636719 201.695312 343.636719 201.804688 343.636719 201.910156 C 343.636719 202.894531 343.460938 203.765625 343.191406 204.527344 C 342.277344 207.066406 338.535156 207.066406 337.628906 204.527344 C 337.359375 203.765625 337.179688 202.894531 337.179688 201.910156 C 337.179688 201.804688 337.179688 201.695312 337.1875 201.582031 C 337.339844 197.367188 340.410156 191.34375 340.410156 191.34375 C 340.410156 191.34375 343.476562 197.367188 343.625 201.582031 Z M 341.074219 203.035156 C 341.074219 202.488281 340.628906 202.042969 340.082031 202.042969 C 339.53125 202.042969 339.089844 202.488281 339.089844 203.035156 C 339.089844 203.585938 339.53125 204.03125 340.082031 204.03125 C 340.628906 204.03125 341.074219 203.585938 341.074219 203.035156 Z M 341.074219 203.035156 " fill-opacity="1" fill-rule="nonzero"/><path fill="#c3ddda" d="M 329.046875 205.351562 C 329.046875 206.335938 328.875 207.207031 328.601562 207.96875 C 327.691406 210.507812 323.949219 210.507812 323.042969 207.96875 C 322.773438 207.207031 322.59375 206.335938 322.59375 205.351562 C 322.59375 204.191406 322.832031 202.878906 323.1875 201.582031 C 324.117188 198.132812 325.824219 194.785156 325.824219 194.785156 C 325.824219 194.785156 327.523438 198.132812 328.457031 201.582031 C 328.808594 202.878906 329.046875 204.191406 329.046875 205.351562 Z M 326.480469 206.476562 C 326.480469 205.929688 326.039062 205.484375 325.492188 205.484375 C 324.945312 205.484375 324.503906 205.929688 324.503906 206.476562 C 324.503906 207.027344 324.945312 207.472656 325.492188 207.472656 C 326.039062 207.472656 326.480469 207.027344 326.480469 206.476562 Z M 326.480469 206.476562 " fill-opacity="1" fill-rule="nonzero"/><path fill="#e15c63" d="M 337.21875 171.515625 C 335.71875 172.652344 334.675781 174.523438 334.75 176.714844 C 332.78125 176.222656 330.722656 176.769531 329.402344 178.183594 C 327.742188 179.941406 327.503906 182.773438 328.914062 185.003906 C 326.421875 183.875 323.476562 184.46875 321.621094 186.464844 C 321.515625 186.578125 321.417969 186.691406 321.320312 186.8125 C 316.09375 185.253906 312.277344 180.394531 312.277344 174.640625 C 312.277344 167.628906 317.945312 161.941406 324.941406 161.941406 C 330.859375 161.941406 335.828125 166.015625 337.21875 171.515625 Z M 337.21875 171.515625 " fill-opacity="1" fill-rule="nonzero"/><g clip-path="url(#d84155d890)"><path fill="#d6eae8" d="M 368.300781 190.859375 C 368.628906 192.871094 367.539062 194.945312 365.625 195.917969 C 364.199219 194.332031 361.601562 193.945312 359.550781 195.246094 C 360.65625 193.214844 360.464844 190.714844 359.0625 188.90625 C 357.59375 187.007812 355.0625 186.222656 352.742188 186.957031 C 354.25 185.089844 354.640625 182.605469 353.714844 180.617188 C 352.492188 177.992188 349.132812 176.582031 345.933594 177.691406 C 346.117188 176.820312 346.113281 175.96875 345.953125 175.171875 L 345.957031 175.171875 C 347.808594 173.578125 350.386719 173.023438 352.742188 173.789062 C 355.652344 174.742188 357.636719 177.515625 357.601562 180.617188 C 359.585938 179.632812 361.960938 180.046875 363.441406 181.59375 C 364.78125 182.996094 365.164062 185.109375 364.414062 186.957031 C 366.4375 187.363281 367.988281 188.9375 368.300781 190.859375 Z M 368.300781 190.859375 " fill-opacity="1" fill-rule="nonzero"/></g><path fill="#c3ddda" d="M 366.710938 195.175781 C 366.386719 195.460938 366.023438 195.714844 365.625 195.917969 C 364.199219 194.332031 361.601562 193.945312 359.550781 195.246094 C 360.65625 193.214844 360.464844 190.714844 359.0625 188.90625 C 357.59375 187.007812 355.0625 186.222656 352.742188 186.957031 C 354.25 185.089844 354.640625 182.605469 353.714844 180.617188 C 352.492188 177.992188 349.132812 176.582031 345.933594 177.691406 C 346.117188 176.820312 346.113281 175.96875 345.953125 175.171875 L 345.957031 175.171875 C 345.957031 175.171875 350.453125 174.070312 353.816406 177.6875 C 357.175781 181.300781 355.59375 184.683594 355.59375 184.683594 C 355.59375 184.683594 362.121094 184.894531 362.515625 191.34375 C 362.515625 191.34375 366.199219 191.042969 366.710938 195.175781 Z M 366.710938 195.175781 " fill-opacity="1" fill-rule="nonzero"/><g clip-path="url(#18dea23201)"><path fill="#ffc05a" d="M 324.535156 155.738281 C 324.261719 155.738281 324.039062 155.960938 324.039062 156.238281 L 324.039062 160.140625 C 324.039062 160.417969 324.261719 160.640625 324.535156 160.640625 C 324.8125 160.640625 325.035156 160.417969 325.035156 160.140625 L 325.035156 156.238281 C 325.035156 155.960938 324.8125 155.738281 324.535156 155.738281 Z M 324.535156 155.738281 " fill-opacity="1" fill-rule="nonzero"/></g><path fill="#ffc05a" d="M 310.433594 173.777344 L 306.546875 173.777344 C 306.269531 173.777344 306.046875 174.003906 306.046875 174.28125 C 306.046875 174.554688 306.269531 174.78125 306.546875 174.78125 L 310.433594 174.78125 C 310.710938 174.78125 310.933594 174.554688 310.933594 174.28125 C 310.933594 174.003906 310.710938 173.777344 310.433594 173.777344 Z M 310.433594 173.777344 " fill-opacity="1" fill-rule="nonzero"/><path fill="#ffc05a" d="M 314.214844 183.921875 L 311.460938 186.683594 C 311.265625 186.878906 311.265625 187.195312 311.460938 187.390625 C 311.558594 187.488281 311.6875 187.539062 311.816406 187.539062 C 311.941406 187.539062 312.070312 187.488281 312.167969 187.390625 L 314.917969 184.632812 C 315.113281 184.4375 315.113281 184.121094 314.917969 183.921875 C 314.726562 183.726562 314.410156 183.726562 314.214844 183.921875 Z M 314.214844 183.921875 " fill-opacity="1" fill-rule="nonzero"/><path fill="#ffc05a" d="M 337.613281 161.167969 C 337.417969 160.972656 337.101562 160.972656 336.90625 161.167969 L 334.15625 163.925781 C 333.960938 164.121094 333.960938 164.441406 334.15625 164.636719 C 334.25 164.734375 334.378906 164.78125 334.507812 164.78125 C 334.632812 164.78125 334.761719 164.734375 334.859375 164.636719 L 337.613281 161.875 C 337.804688 161.679688 337.804688 161.363281 337.613281 161.167969 Z M 337.613281 161.167969 " fill-opacity="1" fill-rule="nonzero"/><path fill="#ffc05a" d="M 312.167969 161.167969 C 311.972656 160.972656 311.65625 160.972656 311.460938 161.167969 C 311.265625 161.363281 311.265625 161.679688 311.460938 161.875 L 314.214844 164.636719 C 314.3125 164.734375 314.4375 164.78125 314.566406 164.78125 C 314.695312 164.78125 314.820312 164.734375 314.917969 164.636719 C 315.113281 164.441406 315.113281 164.121094 314.917969 163.925781 Z M 312.167969 161.167969 " fill-opacity="1" fill-rule="nonzero"/><g fill="#a09fb1" fill-opacity="1"><g transform="translate(162.226956, 145.700165)"><g/></g></g><g fill="#a09fb1" fill-opacity="1"><g transform="translate(13.998227, 209.266236)"><g><path d="M 29.171875 -43.03125 C 29.171875 -41.976562 28.757812 -41.019531 27.9375 -40.15625 C 27.125 -39.300781 26.140625 -38.546875 24.984375 -37.890625 C 23.828125 -37.242188 22.640625 -36.707031 21.421875 -36.28125 C 20.203125 -35.863281 19.191406 -35.570312 18.390625 -35.40625 C 18.054688 -32.175781 17.796875 -28.953125 17.609375 -25.734375 C 17.421875 -22.523438 17.328125 -19.300781 17.328125 -16.0625 C 17.328125 -14.34375 17.367188 -12.640625 17.453125 -10.953125 C 17.535156 -9.273438 17.578125 -7.597656 17.578125 -5.921875 C 17.578125 -5.160156 17.503906 -4.328125 17.359375 -3.421875 C 17.210938 -2.523438 16.957031 -1.675781 16.59375 -0.875 C 16.238281 -0.0820312 15.742188 0.582031 15.109375 1.125 C 14.484375 1.675781 13.710938 1.953125 12.796875 1.953125 C 11.703125 1.953125 10.828125 1.644531 10.171875 1.03125 C 9.523438 0.425781 9.019531 -0.3125 8.65625 -1.1875 C 8.300781 -2.070312 8.0625 -3.007812 7.9375 -4 C 7.8125 -4.988281 7.75 -5.878906 7.75 -6.671875 C 7.664062 -9.191406 7.601562 -11.722656 7.5625 -14.265625 C 7.519531 -16.804688 7.5 -19.359375 7.5 -21.921875 C 7.5 -24.066406 7.507812 -26.164062 7.53125 -28.21875 C 7.550781 -30.28125 7.5625 -32.382812 7.5625 -34.53125 C 6.96875 -34.445312 6.363281 -34.382812 5.75 -34.34375 C 5.144531 -34.300781 4.53125 -34.28125 3.90625 -34.28125 C 3.40625 -34.28125 2.742188 -34.332031 1.921875 -34.4375 C 1.097656 -34.539062 0.3125 -34.726562 -0.4375 -35 C -1.195312 -35.269531 -1.847656 -35.644531 -2.390625 -36.125 C -2.941406 -36.613281 -3.21875 -37.234375 -3.21875 -37.984375 C -3.21875 -39.242188 -2.722656 -40.347656 -1.734375 -41.296875 C -0.742188 -42.242188 0.515625 -43.0625 2.046875 -43.75 C 3.578125 -44.445312 5.273438 -45.035156 7.140625 -45.515625 C 9.015625 -46.003906 10.863281 -46.382812 12.6875 -46.65625 C 14.519531 -46.925781 16.203125 -47.125 17.734375 -47.25 C 19.265625 -47.375 20.453125 -47.4375 21.296875 -47.4375 C 22.097656 -47.4375 22.945312 -47.40625 23.84375 -47.34375 C 24.75 -47.28125 25.597656 -47.101562 26.390625 -46.8125 C 27.191406 -46.519531 27.851562 -46.078125 28.375 -45.484375 C 28.90625 -44.898438 29.171875 -44.082031 29.171875 -43.03125 Z M 29.171875 -43.03125 "/></g></g><g transform="translate(38.004929, 209.266236)"><g><path d="M 28.28125 -11.21875 C 28.28125 -9.789062 27.828125 -8.394531 26.921875 -7.03125 C 26.023438 -5.664062 24.894531 -4.445312 23.53125 -3.375 C 22.164062 -2.300781 20.707031 -1.4375 19.15625 -0.78125 C 17.601562 -0.132812 16.175781 0.1875 14.875 0.1875 C 12.644531 0.1875 10.65625 -0.367188 8.90625 -1.484375 C 7.164062 -2.597656 5.707031 -4.015625 4.53125 -5.734375 C 3.351562 -7.453125 2.457031 -9.347656 1.84375 -11.421875 C 1.238281 -13.503906 0.9375 -15.535156 0.9375 -17.515625 C 0.9375 -19.617188 1.226562 -21.863281 1.8125 -24.25 C 2.40625 -26.644531 3.300781 -28.847656 4.5 -30.859375 C 5.695312 -32.878906 7.207031 -34.5625 9.03125 -35.90625 C 10.863281 -37.25 13.039062 -37.921875 15.5625 -37.921875 C 16.988281 -37.921875 18.351562 -37.679688 19.65625 -37.203125 C 20.957031 -36.722656 22.09375 -36.039062 23.0625 -35.15625 C 24.03125 -34.269531 24.804688 -33.21875 25.390625 -32 C 25.972656 -30.78125 26.265625 -29.414062 26.265625 -27.90625 C 26.265625 -25.9375 25.84375 -24.085938 25 -22.359375 C 24.164062 -20.640625 23.054688 -19.148438 21.671875 -17.890625 C 20.285156 -16.628906 18.6875 -15.609375 16.875 -14.828125 C 15.070312 -14.054688 13.226562 -13.628906 11.34375 -13.546875 C 11.507812 -12.328125 12 -11.441406 12.8125 -10.890625 C 13.632812 -10.347656 14.613281 -10.078125 15.75 -10.078125 C 16.59375 -10.078125 17.410156 -10.285156 18.203125 -10.703125 C 19.003906 -11.128906 19.78125 -11.601562 20.53125 -12.125 C 21.289062 -12.65625 22.035156 -13.128906 22.765625 -13.546875 C 23.503906 -13.960938 24.253906 -14.171875 25.015625 -14.171875 C 25.847656 -14.171875 26.597656 -13.894531 27.265625 -13.34375 C 27.941406 -12.800781 28.28125 -12.09375 28.28125 -11.21875 Z M 18.078125 -26.65625 C 18.078125 -27.195312 17.929688 -27.757812 17.640625 -28.34375 C 17.347656 -28.9375 16.882812 -29.234375 16.25 -29.234375 C 15.332031 -29.234375 14.554688 -28.988281 13.921875 -28.5 C 13.296875 -28.019531 12.769531 -27.410156 12.34375 -26.671875 C 11.925781 -25.941406 11.601562 -25.15625 11.375 -24.3125 C 11.144531 -23.476562 11.007812 -22.703125 10.96875 -21.984375 C 11.550781 -22.109375 12.25 -22.273438 13.0625 -22.484375 C 13.882812 -22.703125 14.660156 -22.988281 15.390625 -23.34375 C 16.128906 -23.695312 16.757812 -24.144531 17.28125 -24.6875 C 17.8125 -25.238281 18.078125 -25.894531 18.078125 -26.65625 Z M 18.078125 -26.65625 "/></g></g><g transform="translate(66.92639, 209.266236)"><g><path d="M 40.140625 -20.796875 C 40.140625 -19.992188 40.140625 -18.910156 40.140625 -17.546875 C 40.140625 -16.179688 40.101562 -14.695312 40.03125 -13.09375 C 39.96875 -11.5 39.832031 -9.894531 39.625 -8.28125 C 39.414062 -6.664062 39.085938 -5.207031 38.640625 -3.90625 C 38.203125 -2.601562 37.644531 -1.53125 36.96875 -0.6875 C 36.300781 0.144531 35.445312 0.5625 34.40625 0.5625 C 33.476562 0.5625 32.769531 0.175781 32.28125 -0.59375 C 31.800781 -1.375 31.457031 -2.289062 31.25 -3.34375 C 31.039062 -4.394531 30.925781 -5.460938 30.90625 -6.546875 C 30.882812 -7.640625 30.875 -8.503906 30.875 -9.140625 C 30.875 -11.023438 30.9375 -12.867188 31.0625 -14.671875 C 31.1875 -16.484375 31.25 -18.332031 31.25 -20.21875 C 31.25 -20.4375 31.25 -20.816406 31.25 -21.359375 C 31.25 -21.898438 31.207031 -22.441406 31.125 -22.984375 C 31.039062 -23.535156 30.90625 -24.019531 30.71875 -24.4375 C 30.53125 -24.863281 30.242188 -25.078125 29.859375 -25.078125 C 29.109375 -25.078125 28.5 -24.6875 28.03125 -23.90625 C 27.570312 -23.132812 27.195312 -22.222656 26.90625 -21.171875 C 26.613281 -20.117188 26.398438 -19.078125 26.265625 -18.046875 C 26.140625 -17.015625 26.054688 -16.25 26.015625 -15.75 C 25.929688 -15.207031 25.859375 -14.390625 25.796875 -13.296875 C 25.734375 -12.203125 25.648438 -11.003906 25.546875 -9.703125 C 25.441406 -8.398438 25.273438 -7.066406 25.046875 -5.703125 C 24.816406 -4.335938 24.519531 -3.097656 24.15625 -1.984375 C 23.800781 -0.867188 23.347656 0.0390625 22.796875 0.75 C 22.253906 1.46875 21.585938 1.828125 20.796875 1.828125 C 19.785156 1.828125 19.003906 1.382812 18.453125 0.5 C 17.910156 -0.375 17.515625 -1.398438 17.265625 -2.578125 C 17.015625 -3.753906 16.859375 -4.953125 16.796875 -6.171875 C 16.734375 -7.390625 16.703125 -8.335938 16.703125 -9.015625 C 16.703125 -9.722656 16.710938 -10.410156 16.734375 -11.078125 C 16.753906 -11.753906 16.765625 -12.453125 16.765625 -13.171875 C 16.765625 -13.460938 16.765625 -13.941406 16.765625 -14.609375 C 16.765625 -15.285156 16.753906 -16.03125 16.734375 -16.84375 C 16.710938 -17.664062 16.664062 -18.519531 16.59375 -19.40625 C 16.53125 -20.289062 16.4375 -21.097656 16.3125 -21.828125 C 16.1875 -22.566406 16 -23.164062 15.75 -23.625 C 15.5 -24.082031 15.207031 -24.3125 14.875 -24.3125 C 14.320312 -24.3125 13.8125 -23.960938 13.34375 -23.265625 C 12.882812 -22.578125 12.488281 -21.757812 12.15625 -20.8125 C 11.820312 -19.875 11.5625 -18.941406 11.375 -18.015625 C 11.1875 -17.097656 11.09375 -16.425781 11.09375 -16 L 11.09375 -15.625 C 11.09375 -13.601562 11.21875 -11.625 11.46875 -9.6875 C 11.71875 -7.757812 11.84375 -5.789062 11.84375 -3.78125 C 11.84375 -2.601562 11.460938 -1.519531 10.703125 -0.53125 C 9.953125 0.445312 8.90625 0.9375 7.5625 0.9375 C 6.59375 0.9375 5.789062 0.570312 5.15625 -0.15625 C 4.53125 -0.894531 4.007812 -1.847656 3.59375 -3.015625 C 3.175781 -4.191406 2.847656 -5.484375 2.609375 -6.890625 C 2.378906 -8.304688 2.222656 -9.695312 2.140625 -11.0625 C 2.054688 -12.425781 2.003906 -13.660156 1.984375 -14.765625 C 1.960938 -15.878906 1.953125 -16.710938 1.953125 -17.265625 C 1.953125 -17.890625 1.941406 -18.8125 1.921875 -20.03125 C 1.898438 -21.25 1.921875 -22.570312 1.984375 -24 C 2.046875 -25.425781 2.160156 -26.882812 2.328125 -28.375 C 2.492188 -29.875 2.765625 -31.234375 3.140625 -32.453125 C 3.523438 -33.671875 4.019531 -34.664062 4.625 -35.4375 C 5.238281 -36.21875 6.03125 -36.609375 7 -36.609375 C 8.082031 -36.609375 8.96875 -36.3125 9.65625 -35.71875 C 10.351562 -35.132812 10.703125 -34.253906 10.703125 -33.078125 C 10.703125 -32.828125 10.691406 -32.570312 10.671875 -32.3125 C 10.648438 -32.0625 10.617188 -31.832031 10.578125 -31.625 C 11.046875 -32.300781 11.613281 -32.984375 12.28125 -33.671875 C 12.957031 -34.367188 13.679688 -35 14.453125 -35.5625 C 15.234375 -36.132812 16.0625 -36.597656 16.9375 -36.953125 C 17.820312 -37.304688 18.707031 -37.484375 19.59375 -37.484375 C 20.4375 -37.484375 21.191406 -37.25 21.859375 -36.78125 C 22.535156 -36.320312 23.125 -35.742188 23.625 -35.046875 C 24.125 -34.359375 24.539062 -33.613281 24.875 -32.8125 C 25.21875 -32.019531 25.453125 -31.269531 25.578125 -30.5625 C 25.992188 -31.3125 26.503906 -32.070312 27.109375 -32.84375 C 27.722656 -33.625 28.382812 -34.304688 29.09375 -34.890625 C 29.8125 -35.484375 30.601562 -35.96875 31.46875 -36.34375 C 32.332031 -36.726562 33.222656 -36.921875 34.140625 -36.921875 C 35.023438 -36.921875 35.78125 -36.601562 36.40625 -35.96875 C 37.039062 -35.34375 37.585938 -34.535156 38.046875 -33.546875 C 38.515625 -32.554688 38.875 -31.441406 39.125 -30.203125 C 39.375 -28.972656 39.582031 -27.757812 39.75 -26.5625 C 39.914062 -25.363281 40.019531 -24.25 40.0625 -23.21875 C 40.113281 -22.1875 40.140625 -21.378906 40.140625 -20.796875 Z M 40.140625 -20.796875 "/></g></g><g transform="translate(109.331931, 209.266236)"><g><path d="M 30.75 -18.78125 C 30.75 -16.925781 30.546875 -14.894531 30.140625 -12.6875 C 29.742188 -10.488281 29.070312 -8.441406 28.125 -6.546875 C 27.1875 -4.660156 25.945312 -3.085938 24.40625 -1.828125 C 22.875 -0.566406 20.957031 0.0625 18.65625 0.0625 C 18.0625 0.0625 17.445312 0.0195312 16.8125 -0.0625 C 16.1875 -0.144531 15.585938 -0.289062 15.015625 -0.5 C 14.453125 -0.707031 13.941406 -0.988281 13.484375 -1.34375 C 13.023438 -1.707031 12.664062 -2.179688 12.40625 -2.765625 L 11.84375 6.296875 C 11.800781 7.265625 11.769531 8.421875 11.75 9.765625 C 11.726562 11.109375 11.5625 12.390625 11.25 13.609375 C 10.9375 14.828125 10.410156 15.863281 9.671875 16.71875 C 8.929688 17.582031 7.867188 18.015625 6.484375 18.015625 C 5.691406 18.015625 5.019531 17.601562 4.46875 16.78125 C 3.925781 15.96875 3.492188 14.929688 3.171875 13.671875 C 2.859375 12.410156 2.617188 11.003906 2.453125 9.453125 C 2.285156 7.898438 2.179688 6.40625 2.140625 4.96875 C 2.097656 3.539062 2.078125 2.238281 2.078125 1.0625 C 2.078125 -0.101562 2.078125 -0.960938 2.078125 -1.515625 C 2.078125 -4.328125 2.054688 -7.128906 2.015625 -9.921875 C 1.972656 -12.710938 1.953125 -15.515625 1.953125 -18.328125 C 1.953125 -18.835938 1.953125 -19.625 1.953125 -20.6875 C 1.953125 -21.757812 1.992188 -22.925781 2.078125 -24.1875 C 2.160156 -25.445312 2.296875 -26.75 2.484375 -28.09375 C 2.671875 -29.4375 2.953125 -30.664062 3.328125 -31.78125 C 3.710938 -32.894531 4.195312 -33.796875 4.78125 -34.484375 C 5.375 -35.179688 6.09375 -35.53125 6.9375 -35.53125 C 7.476562 -35.53125 7.96875 -35.375 8.40625 -35.0625 C 8.851562 -34.75 9.234375 -34.347656 9.546875 -33.859375 C 9.859375 -33.378906 10.117188 -32.863281 10.328125 -32.3125 C 10.535156 -31.769531 10.707031 -31.269531 10.84375 -30.8125 C 12.144531 -32.28125 13.644531 -33.390625 15.34375 -34.140625 C 17.039062 -34.898438 18.859375 -35.28125 20.796875 -35.28125 C 22.804688 -35.28125 24.453125 -34.710938 25.734375 -33.578125 C 27.015625 -32.441406 28.019531 -31.035156 28.75 -29.359375 C 29.488281 -27.679688 30.003906 -25.882812 30.296875 -23.96875 C 30.597656 -22.0625 30.75 -20.332031 30.75 -18.78125 Z M 21.734375 -19.28125 C 21.734375 -19.90625 21.679688 -20.539062 21.578125 -21.1875 C 21.472656 -21.84375 21.285156 -22.453125 21.015625 -23.015625 C 20.742188 -23.585938 20.351562 -24.050781 19.84375 -24.40625 C 19.34375 -24.769531 18.710938 -24.953125 17.953125 -24.953125 C 16.941406 -24.953125 15.878906 -24.625 14.765625 -23.96875 C 13.660156 -23.320312 12.832031 -22.578125 12.28125 -21.734375 C 12.070312 -21.398438 11.945312 -20.851562 11.90625 -20.09375 C 11.863281 -19.34375 11.84375 -18.773438 11.84375 -18.390625 C 11.84375 -18.097656 11.851562 -17.707031 11.875 -17.21875 C 11.894531 -16.738281 11.925781 -16.25 11.96875 -15.75 C 12.007812 -15.25 12.0625 -14.765625 12.125 -14.296875 C 12.1875 -13.835938 12.28125 -13.484375 12.40625 -13.234375 C 12.53125 -12.847656 12.800781 -12.5 13.21875 -12.1875 C 13.644531 -11.875 14.109375 -11.59375 14.609375 -11.34375 C 15.117188 -11.09375 15.632812 -10.898438 16.15625 -10.765625 C 16.6875 -10.640625 17.140625 -10.578125 17.515625 -10.578125 C 18.398438 -10.578125 19.113281 -10.910156 19.65625 -11.578125 C 20.195312 -12.253906 20.625 -13.054688 20.9375 -13.984375 C 21.257812 -14.910156 21.472656 -15.863281 21.578125 -16.84375 C 21.679688 -17.832031 21.734375 -18.644531 21.734375 -19.28125 Z M 21.734375 -19.28125 "/></g></g><g transform="translate(142.033975, 209.266236)"><g><path d="M 13.859375 1.828125 C 11.710938 1.828125 9.84375 1.257812 8.25 0.125 C 6.65625 -1.007812 5.3125 -2.457031 4.21875 -4.21875 C 3.125 -5.988281 2.300781 -7.953125 1.75 -10.109375 C 1.207031 -12.273438 0.9375 -14.40625 0.9375 -16.5 C 0.9375 -18.726562 1.207031 -21.03125 1.75 -23.40625 C 2.300781 -25.78125 3.144531 -27.941406 4.28125 -29.890625 C 5.414062 -31.847656 6.863281 -33.445312 8.625 -34.6875 C 10.394531 -35.925781 12.5 -36.546875 14.9375 -36.546875 C 17.28125 -36.546875 19.28125 -35.90625 20.9375 -34.625 C 22.601562 -33.34375 23.941406 -31.742188 24.953125 -29.828125 C 25.960938 -27.921875 26.675781 -25.832031 27.09375 -23.5625 C 27.507812 -21.289062 27.65625 -19.148438 27.53125 -17.140625 C 27.40625 -14.910156 27.054688 -12.660156 26.484375 -10.390625 C 25.921875 -8.128906 25.09375 -6.09375 24 -4.28125 C 22.90625 -2.476562 21.519531 -1.007812 19.84375 0.125 C 18.164062 1.257812 16.171875 1.828125 13.859375 1.828125 Z M 14.484375 -26.65625 C 13.859375 -26.65625 13.300781 -26.316406 12.8125 -25.640625 C 12.332031 -24.972656 11.9375 -24.15625 11.625 -23.1875 C 11.3125 -22.21875 11.066406 -21.195312 10.890625 -20.125 C 10.722656 -19.050781 10.640625 -18.117188 10.640625 -17.328125 C 10.640625 -16.316406 10.734375 -15.222656 10.921875 -14.046875 C 11.117188 -12.867188 11.382812 -11.785156 11.71875 -10.796875 C 12.050781 -9.816406 12.457031 -9 12.9375 -8.34375 C 13.425781 -7.695312 13.984375 -7.375 14.609375 -7.375 C 15.285156 -7.375 15.863281 -7.6875 16.34375 -8.3125 C 16.832031 -8.945312 17.222656 -9.742188 17.515625 -10.703125 C 17.804688 -11.671875 18.015625 -12.734375 18.140625 -13.890625 C 18.265625 -15.046875 18.328125 -16.128906 18.328125 -17.140625 C 18.328125 -18.054688 18.242188 -19.070312 18.078125 -20.1875 C 17.910156 -21.300781 17.671875 -22.34375 17.359375 -23.3125 C 17.046875 -24.28125 16.644531 -25.078125 16.15625 -25.703125 C 15.675781 -26.335938 15.117188 -26.65625 14.484375 -26.65625 Z M 14.484375 -26.65625 "/></g></g><g transform="translate(170.892426, 209.266236)"><g><path d="M 29.734375 -32.0625 C 29.734375 -31.269531 29.640625 -30.429688 29.453125 -29.546875 C 29.265625 -28.660156 28.957031 -27.835938 28.53125 -27.078125 C 28.113281 -26.328125 27.566406 -25.703125 26.890625 -25.203125 C 26.222656 -24.703125 25.410156 -24.453125 24.453125 -24.453125 C 22.972656 -24.453125 21.875 -24.710938 21.15625 -25.234375 C 20.445312 -25.753906 19.945312 -26.414062 19.65625 -27.21875 C 19.363281 -28.019531 19.207031 -28.867188 19.1875 -29.765625 C 19.164062 -30.671875 19.132812 -31.519531 19.09375 -32.3125 C 19.050781 -33.113281 18.910156 -33.773438 18.671875 -34.296875 C 18.441406 -34.828125 17.953125 -35.09375 17.203125 -35.09375 C 16.359375 -35.09375 15.617188 -34.785156 14.984375 -34.171875 C 14.359375 -33.566406 13.8125 -32.78125 13.34375 -31.8125 C 12.882812 -30.851562 12.5 -29.765625 12.1875 -28.546875 C 11.875 -27.328125 11.625 -26.117188 11.4375 -24.921875 C 11.25 -23.722656 11.113281 -22.585938 11.03125 -21.515625 C 10.945312 -20.441406 10.90625 -19.570312 10.90625 -18.90625 C 10.90625 -18.019531 10.9375 -16.96875 11 -15.75 C 11.0625 -14.53125 11.257812 -13.363281 11.59375 -12.25 C 11.925781 -11.132812 12.425781 -10.1875 13.09375 -9.40625 C 13.769531 -8.632812 14.738281 -8.25 16 -8.25 C 16.84375 -8.25 17.660156 -8.351562 18.453125 -8.5625 C 19.253906 -8.78125 20.050781 -9.023438 20.84375 -9.296875 C 21.644531 -9.566406 22.457031 -9.804688 23.28125 -10.015625 C 24.101562 -10.222656 24.929688 -10.328125 25.765625 -10.328125 C 26.734375 -10.328125 27.53125 -9.9375 28.15625 -9.15625 C 28.789062 -8.382812 29.109375 -7.515625 29.109375 -6.546875 C 29.109375 -5.203125 28.6875 -3.953125 27.84375 -2.796875 C 27.007812 -1.648438 25.972656 -0.632812 24.734375 0.25 C 23.492188 1.132812 22.144531 1.828125 20.6875 2.328125 C 19.238281 2.835938 17.929688 3.09375 16.765625 3.09375 C 13.734375 3.09375 11.164062 2.40625 9.0625 1.03125 C 6.96875 -0.332031 5.269531 -2.09375 3.96875 -4.25 C 2.664062 -6.414062 1.726562 -8.832031 1.15625 -11.5 C 0.59375 -14.164062 0.3125 -16.820312 0.3125 -19.46875 C 0.3125 -21.226562 0.476562 -23.160156 0.8125 -25.265625 C 1.15625 -27.367188 1.660156 -29.476562 2.328125 -31.59375 C 3.003906 -33.71875 3.851562 -35.765625 4.875 -37.734375 C 5.90625 -39.710938 7.113281 -41.457031 8.5 -42.96875 C 9.882812 -44.476562 11.445312 -45.695312 13.1875 -46.625 C 14.9375 -47.550781 16.863281 -48.015625 18.96875 -48.015625 C 21.019531 -48.015625 22.738281 -47.5 24.125 -46.46875 C 25.507812 -45.4375 26.625 -44.132812 27.46875 -42.5625 C 28.3125 -40.988281 28.898438 -39.265625 29.234375 -37.390625 C 29.566406 -35.523438 29.734375 -33.75 29.734375 -32.0625 Z M 29.734375 -32.0625 "/></g></g><g transform="translate(201.263111, 209.266236)"><g><path d="M 28.28125 -11.21875 C 28.28125 -9.789062 27.828125 -8.394531 26.921875 -7.03125 C 26.023438 -5.664062 24.894531 -4.445312 23.53125 -3.375 C 22.164062 -2.300781 20.707031 -1.4375 19.15625 -0.78125 C 17.601562 -0.132812 16.175781 0.1875 14.875 0.1875 C 12.644531 0.1875 10.65625 -0.367188 8.90625 -1.484375 C 7.164062 -2.597656 5.707031 -4.015625 4.53125 -5.734375 C 3.351562 -7.453125 2.457031 -9.347656 1.84375 -11.421875 C 1.238281 -13.503906 0.9375 -15.535156 0.9375 -17.515625 C 0.9375 -19.617188 1.226562 -21.863281 1.8125 -24.25 C 2.40625 -26.644531 3.300781 -28.847656 4.5 -30.859375 C 5.695312 -32.878906 7.207031 -34.5625 9.03125 -35.90625 C 10.863281 -37.25 13.039062 -37.921875 15.5625 -37.921875 C 16.988281 -37.921875 18.351562 -37.679688 19.65625 -37.203125 C 20.957031 -36.722656 22.09375 -36.039062 23.0625 -35.15625 C 24.03125 -34.269531 24.804688 -33.21875 25.390625 -32 C 25.972656 -30.78125 26.265625 -29.414062 26.265625 -27.90625 C 26.265625 -25.9375 25.84375 -24.085938 25 -22.359375 C 24.164062 -20.640625 23.054688 -19.148438 21.671875 -17.890625 C 20.285156 -16.628906 18.6875 -15.609375 16.875 -14.828125 C 15.070312 -14.054688 13.226562 -13.628906 11.34375 -13.546875 C 11.507812 -12.328125 12 -11.441406 12.8125 -10.890625 C 13.632812 -10.347656 14.613281 -10.078125 15.75 -10.078125 C 16.59375 -10.078125 17.410156 -10.285156 18.203125 -10.703125 C 19.003906 -11.128906 19.78125 -11.601562 20.53125 -12.125 C 21.289062 -12.65625 22.035156 -13.128906 22.765625 -13.546875 C 23.503906 -13.960938 24.253906 -14.171875 25.015625 -14.171875 C 25.847656 -14.171875 26.597656 -13.894531 27.265625 -13.34375 C 27.941406 -12.800781 28.28125 -12.09375 28.28125 -11.21875 Z M 18.078125 -26.65625 C 18.078125 -27.195312 17.929688 -27.757812 17.640625 -28.34375 C 17.347656 -28.9375 16.882812 -29.234375 16.25 -29.234375 C 15.332031 -29.234375 14.554688 -28.988281 13.921875 -28.5 C 13.296875 -28.019531 12.769531 -27.410156 12.34375 -26.671875 C 11.925781 -25.941406 11.601562 -25.15625 11.375 -24.3125 C 11.144531 -23.476562 11.007812 -22.703125 10.96875 -21.984375 C 11.550781 -22.109375 12.25 -22.273438 13.0625 -22.484375 C 13.882812 -22.703125 14.660156 -22.988281 15.390625 -23.34375 C 16.128906 -23.695312 16.757812 -24.144531 17.28125 -24.6875 C 17.8125 -25.238281 18.078125 -25.894531 18.078125 -26.65625 Z M 18.078125 -26.65625 "/></g></g><g transform="translate(230.184572, 209.266236)"><g><path d="M 23.75 -23.5625 C 23.164062 -23.519531 22.660156 -23.570312 22.234375 -23.71875 C 21.816406 -23.863281 21.398438 -24.019531 20.984375 -24.1875 C 20.597656 -24.363281 20.21875 -24.523438 19.84375 -24.671875 C 19.46875 -24.816406 19.050781 -24.867188 18.59375 -24.828125 C 17.75 -24.785156 17 -24.550781 16.34375 -24.125 C 15.695312 -23.707031 15.109375 -23.179688 14.578125 -22.546875 C 14.054688 -21.921875 13.601562 -21.21875 13.21875 -20.4375 C 12.84375 -19.664062 12.550781 -18.898438 12.34375 -18.140625 C 12.21875 -17.640625 12.125 -16.875 12.0625 -15.84375 C 12 -14.8125 11.96875 -13.707031 11.96875 -12.53125 C 11.925781 -11.3125 11.90625 -10.15625 11.90625 -9.0625 C 11.90625 -7.976562 11.863281 -7.117188 11.78125 -6.484375 C 11.738281 -5.816406 11.632812 -5.03125 11.46875 -4.125 C 11.300781 -3.21875 11.035156 -2.363281 10.671875 -1.5625 C 10.316406 -0.769531 9.84375 -0.101562 9.25 0.4375 C 8.664062 0.988281 7.914062 1.265625 7 1.265625 C 6.28125 1.265625 5.65625 1.050781 5.125 0.625 C 4.601562 0.207031 4.164062 -0.34375 3.8125 -1.03125 C 3.457031 -1.726562 3.160156 -2.535156 2.921875 -3.453125 C 2.691406 -4.378906 2.515625 -5.328125 2.390625 -6.296875 C 2.265625 -7.304688 2.171875 -8.316406 2.109375 -9.328125 C 2.046875 -10.335938 2.003906 -11.289062 1.984375 -12.1875 C 1.960938 -13.09375 1.960938 -13.921875 1.984375 -14.671875 C 2.003906 -15.429688 2.015625 -16.039062 2.015625 -16.5 C 1.972656 -17.976562 1.898438 -19.460938 1.796875 -20.953125 C 1.691406 -22.441406 1.640625 -23.921875 1.640625 -25.390625 C 1.640625 -26.316406 1.679688 -27.34375 1.765625 -28.46875 C 1.847656 -29.601562 2.078125 -30.664062 2.453125 -31.65625 C 2.835938 -32.644531 3.394531 -33.472656 4.125 -34.140625 C 4.863281 -34.816406 5.882812 -35.15625 7.1875 -35.15625 C 7.894531 -35.15625 8.5 -34.921875 9 -34.453125 C 9.507812 -33.992188 9.921875 -33.425781 10.234375 -32.75 C 10.546875 -32.082031 10.785156 -31.367188 10.953125 -30.609375 C 11.128906 -29.859375 11.238281 -29.171875 11.28125 -28.546875 C 12.289062 -30.179688 13.421875 -31.507812 14.671875 -32.53125 C 15.929688 -33.5625 17.570312 -34.117188 19.59375 -34.203125 C 20.601562 -34.253906 21.597656 -34.160156 22.578125 -33.921875 C 23.566406 -33.691406 24.472656 -33.3125 25.296875 -32.78125 C 26.117188 -32.257812 26.789062 -31.578125 27.3125 -30.734375 C 27.832031 -29.898438 28.113281 -28.914062 28.15625 -27.78125 C 28.238281 -26.4375 27.835938 -25.40625 26.953125 -24.6875 C 26.078125 -23.976562 25.007812 -23.601562 23.75 -23.5625 Z M 23.75 -23.5625 "/></g></g><g transform="translate(257.404771, 209.266236)"><g><path d="M 16.5625 2.265625 C 13.582031 2.265625 11.265625 1.875 9.609375 1.09375 C 7.953125 0.320312 6.710938 -0.773438 5.890625 -2.203125 C 5.066406 -3.628906 4.570312 -5.347656 4.40625 -7.359375 C 4.238281 -9.378906 4.15625 -11.628906 4.15625 -14.109375 C 4.15625 -16.085938 4.21875 -18.070312 4.34375 -20.0625 C 4.46875 -22.0625 4.660156 -24.195312 4.921875 -26.46875 C 4.328125 -26.46875 3.863281 -26.457031 3.53125 -26.4375 C 3.195312 -26.414062 2.921875 -26.40625 2.703125 -26.40625 C 1.359375 -26.40625 0.195312 -26.695312 -0.78125 -27.28125 C -1.769531 -27.863281 -2.265625 -28.765625 -2.265625 -29.984375 C -2.265625 -30.742188 -1.976562 -31.414062 -1.40625 -32 C -0.84375 -32.59375 -0.125 -33.097656 0.75 -33.515625 C 1.632812 -33.929688 2.59375 -34.265625 3.625 -34.515625 C 4.65625 -34.773438 5.628906 -34.945312 6.546875 -35.03125 C 6.546875 -36.207031 6.628906 -37.507812 6.796875 -38.9375 C 6.972656 -40.363281 7.28125 -41.695312 7.71875 -42.9375 C 8.15625 -44.175781 8.75 -45.210938 9.5 -46.046875 C 10.257812 -46.890625 11.226562 -47.3125 12.40625 -47.3125 C 13.082031 -47.3125 13.679688 -47.113281 14.203125 -46.71875 C 14.734375 -46.320312 15.164062 -45.816406 15.5 -45.203125 C 15.832031 -44.597656 16.082031 -43.914062 16.25 -43.15625 C 16.414062 -42.394531 16.5 -41.660156 16.5 -40.953125 C 16.5 -40.109375 16.4375 -39.242188 16.3125 -38.359375 C 16.1875 -37.484375 15.957031 -36.394531 15.625 -35.09375 C 16.34375 -35.175781 16.828125 -35.226562 17.078125 -35.25 C 17.328125 -35.269531 17.554688 -35.28125 17.765625 -35.28125 C 18.484375 -35.28125 19.226562 -35.21875 20 -35.09375 C 20.78125 -34.96875 21.492188 -34.753906 22.140625 -34.453125 C 22.796875 -34.160156 23.332031 -33.773438 23.75 -33.296875 C 24.164062 -32.816406 24.375 -32.238281 24.375 -31.5625 C 24.375 -30.8125 24.070312 -30.140625 23.46875 -29.546875 C 22.863281 -28.960938 22.097656 -28.457031 21.171875 -28.03125 C 20.242188 -27.613281 19.253906 -27.289062 18.203125 -27.0625 C 17.160156 -26.832031 16.175781 -26.675781 15.25 -26.59375 C 15 -24.863281 14.816406 -23.273438 14.703125 -21.828125 C 14.597656 -20.378906 14.484375 -18.921875 14.359375 -17.453125 C 14.273438 -16.734375 14.203125 -16.003906 14.140625 -15.265625 C 14.078125 -14.535156 14.046875 -13.796875 14.046875 -13.046875 C 14.046875 -12.492188 14.066406 -11.847656 14.109375 -11.109375 C 14.148438 -10.378906 14.296875 -9.675781 14.546875 -9 C 14.804688 -8.332031 15.207031 -7.753906 15.75 -7.265625 C 16.289062 -6.785156 17.046875 -6.546875 18.015625 -6.546875 C 18.609375 -6.546875 19.21875 -6.597656 19.84375 -6.703125 C 20.476562 -6.816406 21.109375 -6.875 21.734375 -6.875 C 22.828125 -6.875 23.613281 -6.492188 24.09375 -5.734375 C 24.582031 -4.972656 24.828125 -4.003906 24.828125 -2.828125 C 24.828125 -1.953125 24.5625 -1.1875 24.03125 -0.53125 C 23.507812 0.113281 22.847656 0.632812 22.046875 1.03125 C 21.253906 1.4375 20.363281 1.742188 19.375 1.953125 C 18.382812 2.160156 17.445312 2.265625 16.5625 2.265625 Z M 16.5625 2.265625 "/></g></g><g transform="translate(281.600503, 209.266236)"><g><path d="M 13.859375 1.828125 C 11.710938 1.828125 9.84375 1.257812 8.25 0.125 C 6.65625 -1.007812 5.3125 -2.457031 4.21875 -4.21875 C 3.125 -5.988281 2.300781 -7.953125 1.75 -10.109375 C 1.207031 -12.273438 0.9375 -14.40625 0.9375 -16.5 C 0.9375 -18.726562 1.207031 -21.03125 1.75 -23.40625 C 2.300781 -25.78125 3.144531 -27.941406 4.28125 -29.890625 C 5.414062 -31.847656 6.863281 -33.445312 8.625 -34.6875 C 10.394531 -35.925781 12.5 -36.546875 14.9375 -36.546875 C 17.28125 -36.546875 19.28125 -35.90625 20.9375 -34.625 C 22.601562 -33.34375 23.941406 -31.742188 24.953125 -29.828125 C 25.960938 -27.921875 26.675781 -25.832031 27.09375 -23.5625 C 27.507812 -21.289062 27.65625 -19.148438 27.53125 -17.140625 C 27.40625 -14.910156 27.054688 -12.660156 26.484375 -10.390625 C 25.921875 -8.128906 25.09375 -6.09375 24 -4.28125 C 22.90625 -2.476562 21.519531 -1.007812 19.84375 0.125 C 18.164062 1.257812 16.171875 1.828125 13.859375 1.828125 Z M 14.484375 -26.65625 C 13.859375 -26.65625 13.300781 -26.316406 12.8125 -25.640625 C 12.332031 -24.972656 11.9375 -24.15625 11.625 -23.1875 C 11.3125 -22.21875 11.066406 -21.195312 10.890625 -20.125 C 10.722656 -19.050781 10.640625 -18.117188 10.640625 -17.328125 C 10.640625 -16.316406 10.734375 -15.222656 10.921875 -14.046875 C 11.117188 -12.867188 11.382812 -11.785156 11.71875 -10.796875 C 12.050781 -9.816406 12.457031 -9 12.9375 -8.34375 C 13.425781 -7.695312 13.984375 -7.375 14.609375 -7.375 C 15.285156 -7.375 15.863281 -7.6875 16.34375 -8.3125 C 16.832031 -8.945312 17.222656 -9.742188 17.515625 -10.703125 C 17.804688 -11.671875 18.015625 -12.734375 18.140625 -13.890625 C 18.265625 -15.046875 18.328125 -16.128906 18.328125 -17.140625 C 18.328125 -18.054688 18.242188 -19.070312 18.078125 -20.1875 C 17.910156 -21.300781 17.671875 -22.34375 17.359375 -23.3125 C 17.046875 -24.28125 16.644531 -25.078125 16.15625 -25.703125 C 15.675781 -26.335938 15.117188 -26.65625 14.484375 -26.65625 Z M 14.484375 -26.65625 "/></g></g></g></svg>